<?xml version="1.0" encoding="UTF-8" standalone="no"?>
<!DOCTYPE svg PUBLIC "-//W3C//DTD SVG 1.1//EN"
 "http://www.w3.org/Graphics/SVG/1.1/DTD/svg11.dtd">
<!-- Generated by graphviz version 15.0.0 (0)
 -->
<!-- Title: C4Context Pages: 1 -->
<svg width="224pt" height="459pt"
 viewBox="0.00 0.00 224.00 459.00" xmlns="http://www.w3.org/2000/svg" xmlns:xlink="http://www.w3.org/1999/xlink">
<g id="graph0" class="graph" transform="scale(1 1) rotate(0) translate(4 455)">
<title>C4Context</title>
<polygon fill="white" stroke="none" points="-4,4 -4,-455 220.43,-455 220.43,4 -4,4"/>
<!-- monteur -->
<g id="node1" class="node">
<title>monteur</title>
<path fill="#08427b" stroke="black" stroke-width="0" d="M175.2,-451C175.2,-451 12,-451 12,-451 6,-451 0,-445 0,-439 0,-439 0,-383.8 0,-383.8 0,-377.8 6,-371.8 12,-371.8 12,-371.8 175.2,-371.8 175.2,-371.8 181.2,-371.8 187.2,-377.8 187.2,-383.8 187.2,-383.8 187.2,-439 187.2,-439 187.2,-445 181.2,-451 175.2,-451"/>
<text xml:space="preserve" text-anchor="start" x="69.94" y="-428.1" font-family="Helvetica,sans-Serif" font-weight="bold" font-size="12.00" fill="white">Monteur</text>
<text xml:space="preserve" text-anchor="start" x="74.34" y="-418.8" font-family="Helvetica,sans-Serif" font-size="9.00" fill="white">[Persoon]</text>
<text xml:space="preserve" text-anchor="start" x="45.52" y="-396.9" font-family="Helvetica,sans-Serif" font-size="10.00" fill="white">Bekijkt slijtageverloop</text>
<text xml:space="preserve" text-anchor="start" x="50.52" y="-386.9" font-family="Helvetica,sans-Serif" font-size="10.00" fill="white">en interpreteert zelf</text>
</g>
<!-- dashboard -->
<g id="node2" class="node">
<title>dashboard</title>
<path fill="#1168bd" stroke="black" stroke-width="0" d="M175.2,-267.8C175.2,-267.8 12,-267.8 12,-267.8 6,-267.8 0,-261.8 0,-255.8 0,-255.8 0,-195.2 0,-195.2 0,-189.2 6,-183.2 12,-183.2 12,-183.2 175.2,-183.2 175.2,-183.2 181.2,-183.2 187.2,-189.2 187.2,-195.2 187.2,-195.2 187.2,-255.8 187.2,-255.8 187.2,-261.8 181.2,-267.8 175.2,-267.8"/>
<text xml:space="preserve" text-anchor="start" x="24.26" y="-247.2" font-family="Helvetica,sans-Serif" font-weight="bold" font-size="12.00" fill="white">NLR Bearing Dashboard</text>
<text xml:space="preserve" text-anchor="start" x="55.34" y="-237.9" font-family="Helvetica,sans-Serif" font-size="9.00" fill="white">[Software systeem]</text>
<text xml:space="preserve" text-anchor="start" x="39.13" y="-216" font-family="Helvetica,sans-Serif" font-size="10.00" fill="white">Toont trillingskenmerken</text>
<text xml:space="preserve" text-anchor="start" x="31.65" y="-206" font-family="Helvetica,sans-Serif" font-size="10.00" fill="white">(RMS, kurtosis, crest factor)</text>
<text xml:space="preserve" text-anchor="start" x="51.07" y="-196" font-family="Helvetica,sans-Serif" font-size="10.00" fill="white">over de levensduur</text>
</g>
<!-- monteur&#45;&gt;dashboard -->
<g id="edge1" class="edge">
<title>monteur&#45;&gt;dashboard</title>
<path fill="none" stroke="#444444" stroke-width="1.2" d="M93.6,-371.98C93.6,-371.98 93.6,-279.59 93.6,-279.59"/>
<polygon fill="#444444" stroke="#444444" stroke-width="1.2" points="97.1,-279.59 93.6,-269.59 90.1,-279.59 97.1,-279.59"/>
<text xml:space="preserve" text-anchor="start" x="93.6" y="-322.8" font-family="Helvetica,sans-Serif" font-size="10.00"> &#160;Kiest conditie/lager,</text>
<text xml:space="preserve" text-anchor="start" x="93.6" y="-310.8" font-family="Helvetica,sans-Serif" font-size="10.00"> &#160;bekijkt grafieken [Browser]</text>
</g>
<!-- xjtu -->
<g id="node3" class="node">
<title>xjtu</title>
<path fill="#999999" stroke="black" stroke-width="0" d="M175.2,-79.2C175.2,-79.2 12,-79.2 12,-79.2 6,-79.2 0,-73.2 0,-67.2 0,-67.2 0,-12 0,-12 0,-6 6,0 12,0 12,0 175.2,0 175.2,0 181.2,0 187.2,-6 187.2,-12 187.2,-12 187.2,-67.2 187.2,-67.2 187.2,-73.2 181.2,-79.2 175.2,-79.2"/>
<text xml:space="preserve" text-anchor="start" x="20.91" y="-56.3" font-family="Helvetica,sans-Serif" font-weight="bold" font-size="12.00" fill="white">XJTU&#45;SY Bearing Dataset</text>
<text xml:space="preserve" text-anchor="start" x="46.08" y="-47" font-family="Helvetica,sans-Serif" font-size="9.00" fill="white">[Extern · CSV op schijf]</text>
<text xml:space="preserve" text-anchor="start" x="50.8" y="-25.1" font-family="Helvetica,sans-Serif" font-size="10.00" fill="white">Run&#45;to&#45;failure data:</text>
<text xml:space="preserve" text-anchor="start" x="46.35" y="-15.1" font-family="Helvetica,sans-Serif" font-size="10.00" fill="white">15 lagers, 3 condities</text>
</g>
<!-- dashboard&#45;&gt;xjtu -->
<g id="edge2" class="edge">
<title>dashboard&#45;&gt;xjtu</title>
<path fill="none" stroke="#444444" stroke-width="1.2" d="M93.6,-183.32C93.6,-183.32 93.6,-90.89 93.6,-90.89"/>
<polygon fill="#444444" stroke="#444444" stroke-width="1.2" points="97.1,-90.89 93.6,-80.89 90.1,-90.89 97.1,-90.89"/>
<text xml:space="preserve" text-anchor="start" x="93.6" y="-134.2" font-family="Helvetica,sans-Serif" font-size="10.00"> &#160;Leest ruwe</text>
<text xml:space="preserve" text-anchor="start" x="93.6" y="-122.2" font-family="Helvetica,sans-Serif" font-size="10.00"> &#160;meetbestanden [CSV]</text>
</g>
</g>
</svg>
