<?xml version="1.0" encoding="UTF-8" standalone="no"?>
<!DOCTYPE svg PUBLIC "-//W3C//DTD SVG 1.1//EN"
 "http://www.w3.org/Graphics/SVG/1.1/DTD/svg11.dtd">
<!-- Generated by graphviz version 15.0.0 (0)
 -->
<!-- Title: C4Container Pages: 1 -->
<svg width="1048pt" height="512pt"
 viewBox="0.00 0.00 1048.00 512.00" xmlns="http://www.w3.org/2000/svg" xmlns:xlink="http://www.w3.org/1999/xlink">
<g id="graph0" class="graph" transform="scale(1 1) rotate(0) translate(4 507.58)">
<title>C4Container</title>
<polygon fill="white" stroke="none" points="-4,4 -4,-507.58 1044.4,-507.58 1044.4,4 -4,4"/>
<g id="clust1" class="cluster">
<title>cluster_sys</title>
<path fill="white" stroke="#888888" stroke-width="1.5" stroke-dasharray="5,2" d="M254.2,-8C254.2,-8 810.2,-8 810.2,-8 816.2,-8 822.2,-14 822.2,-20 822.2,-20 822.2,-380.58 822.2,-380.58 822.2,-386.58 816.2,-392.58 810.2,-392.58 810.2,-392.58 254.2,-392.58 254.2,-392.58 248.2,-392.58 242.2,-386.58 242.2,-380.58 242.2,-380.58 242.2,-20 242.2,-20 242.2,-14 248.2,-8 254.2,-8"/>
<text xml:space="preserve" text-anchor="start" x="250.2" y="-377.88" font-family="Helvetica,sans-Serif" font-weight="bold" font-size="13.00" fill="#333333">NLR Bearing Dashboard</text>
</g>
<!-- monteur -->
<g id="node1" class="node">
<title>monteur</title>
<path fill="#08427b" stroke="black" stroke-width="0" d="M182.4,-312.38C182.4,-312.38 12,-312.38 12,-312.38 6,-312.38 0,-306.38 0,-300.38 0,-300.38 0,-259.58 0,-259.58 0,-253.58 6,-247.58 12,-247.58 12,-247.58 182.4,-247.58 182.4,-247.58 188.4,-247.58 194.4,-253.58 194.4,-259.58 194.4,-259.58 194.4,-300.38 194.4,-300.38 194.4,-306.38 188.4,-312.38 182.4,-312.38"/>
<text xml:space="preserve" text-anchor="start" x="73.54" y="-280.68" font-family="Helvetica,sans-Serif" font-weight="bold" font-size="12.00" fill="white">Monteur</text>
<text xml:space="preserve" text-anchor="start" x="77.94" y="-271.38" font-family="Helvetica,sans-Serif" font-size="9.00" fill="white">[Persoon]</text>
</g>
<!-- webapp -->
<g id="node4" class="node">
<title>webapp</title>
<path fill="#1168bd" stroke="black" stroke-width="0" d="M786.4,-321.38C786.4,-321.38 616,-321.38 616,-321.38 610,-321.38 604,-315.38 604,-309.38 604,-309.38 604,-250.58 604,-250.58 604,-244.58 610,-238.58 616,-238.58 616,-238.58 786.4,-238.58 786.4,-238.58 792.4,-238.58 798.4,-244.58 798.4,-250.58 798.4,-250.58 798.4,-309.38 798.4,-309.38 798.4,-315.38 792.4,-321.38 786.4,-321.38"/>
<text xml:space="preserve" text-anchor="start" x="648.53" y="-296.68" font-family="Helvetica,sans-Serif" font-weight="bold" font-size="12.00" fill="white">Streamlit Web&#45;app</text>
<text xml:space="preserve" text-anchor="start" x="663.19" y="-287.38" font-family="Helvetica,sans-Serif" font-size="9.00" fill="white">[Python / Streamlit]</text>
<text xml:space="preserve" text-anchor="start" x="643.8" y="-265.48" font-family="Helvetica,sans-Serif" font-size="10.00" fill="white">Startpagina + 2 schermen</text>
<text xml:space="preserve" text-anchor="start" x="652.85" y="-255.48" font-family="Helvetica,sans-Serif" font-size="10.00" fill="white">(Trend &amp; Vergelijking)</text>
</g>
<!-- monteur&#45;&gt;webapp -->
<g id="edge4" class="edge">
<title>monteur&#45;&gt;webapp</title>
<path fill="none" stroke="#444444" stroke-width="1.2" d="M97.2,-312.25C97.2,-326.03 97.2,-339 97.2,-339 97.2,-339 701.2,-339 701.2,-339 701.2,-339 701.2,-333.11 701.2,-333.11"/>
<polygon fill="#444444" stroke="#444444" stroke-width="1.2" points="704.7,-333.11 701.2,-323.11 697.7,-333.11 704.7,-333.11"/>
<text xml:space="preserve" text-anchor="middle" x="399.2" y="-403.58" font-family="Helvetica,sans-Serif" font-size="10.00"> &#160;Gebruikt [HTTP/Browser] &#160;</text>
</g>
<!-- rawdata -->
<g id="node2" class="node">
<title>rawdata</title>
<path fill="#999999" stroke="black" stroke-width="0" d="M1028.4,-124.69C1028.4,-124.69 858,-124.69 858,-124.69 852,-124.69 846,-118.69 846,-112.69 846,-112.69 846,-53.89 846,-53.89 846,-47.89 852,-41.89 858,-41.89 858,-41.89 1028.4,-41.89 1028.4,-41.89 1034.4,-41.89 1040.4,-47.89 1040.4,-53.89 1040.4,-53.89 1040.4,-112.69 1040.4,-112.69 1040.4,-118.69 1034.4,-124.69 1028.4,-124.69"/>
<text xml:space="preserve" text-anchor="start" x="881.52" y="-99.99" font-family="Helvetica,sans-Serif" font-weight="bold" font-size="12.00" fill="white">Ruwe meetbestanden</text>
<text xml:space="preserve" text-anchor="start" x="913.44" y="-90.69" font-family="Helvetica,sans-Serif" font-size="9.00" fill="white">[Extern · CSV]</text>
<text xml:space="preserve" text-anchor="start" x="877.05" y="-68.79" font-family="Helvetica,sans-Serif" font-size="10.00" fill="white">data/conditie/lager/minuut.csv</text>
<text xml:space="preserve" text-anchor="start" x="898.17" y="-58.79" font-family="Helvetica,sans-Serif" font-size="10.00" fill="white">32.768 metingen elk</text>
</g>
<!-- batch -->
<g id="node3" class="node">
<title>batch</title>
<path fill="#1168bd" stroke="black" stroke-width="0" d="M448.4,-321.38C448.4,-321.38 278,-321.38 278,-321.38 272,-321.38 266,-315.38 266,-309.38 266,-309.38 266,-250.58 266,-250.58 266,-244.58 272,-238.58 278,-238.58 278,-238.58 448.4,-238.58 448.4,-238.58 454.4,-238.58 460.4,-244.58 460.4,-250.58 460.4,-250.58 460.4,-309.38 460.4,-309.38 460.4,-315.38 454.4,-321.38 448.4,-321.38"/>
<text xml:space="preserve" text-anchor="start" x="319.53" y="-296.68" font-family="Helvetica,sans-Serif" font-weight="bold" font-size="12.00" fill="white">Feature&#45;builder</text>
<text xml:space="preserve" text-anchor="start" x="307.42" y="-287.38" font-family="Helvetica,sans-Serif" font-size="9.00" fill="white">[Python · build_features.py]</text>
<text xml:space="preserve" text-anchor="start" x="321.51" y="-265.48" font-family="Helvetica,sans-Serif" font-size="10.00" fill="white">Berekent eenmalig</text>
<text xml:space="preserve" text-anchor="start" x="331.52" y="-255.48" font-family="Helvetica,sans-Serif" font-size="10.00" fill="white">de kenmerken</text>
</g>
<!-- batch&#45;&gt;rawdata -->
<g id="edge6" class="edge">
<title>batch&#45;&gt;rawdata</title>
<path fill="none" stroke="#444444" stroke-width="1.2" d="M460.37,-280C517.92,-280 579.7,-280 579.7,-280 579.7,-280 579.7,-69 579.7,-69 579.7,-69 834.45,-69 834.45,-69"/>
<polygon fill="#444444" stroke="#444444" stroke-width="1.2" points="834.45,-72.5 844.45,-69 834.45,-65.5 834.45,-72.5"/>
<text xml:space="preserve" text-anchor="start" x="773.2" y="-189.57" font-family="Helvetica,sans-Serif" font-size="10.00"> &#160;Leest alle</text>
<text xml:space="preserve" text-anchor="start" x="773.2" y="-177.57" font-family="Helvetica,sans-Serif" font-size="10.00"> &#160;metingen [CSV]</text>
</g>
<!-- batch&#45;&gt;webapp -->
<!-- featurescsv -->
<g id="node5" class="node">
<title>featurescsv</title>
<path fill="#438dd5" stroke="black" stroke-width="0" d="M555.4,-125.25C555.4,-130.4 511.83,-134.57 458.2,-134.57 404.57,-134.57 361,-130.4 361,-125.25 361,-125.25 361,-41.33 361,-41.33 361,-36.18 404.57,-32 458.2,-32 511.83,-32 555.4,-36.18 555.4,-41.33 555.4,-41.33 555.4,-125.25 555.4,-125.25"/>
<path fill="none" stroke="black" stroke-width="0" d="M555.4,-125.25C555.4,-120.1 511.83,-115.92 458.2,-115.92 404.57,-115.92 361,-120.1 361,-125.25"/>
<text xml:space="preserve" text-anchor="start" x="423.18" y="-99.99" font-family="Helvetica,sans-Serif" font-weight="bold" font-size="12.00" fill="white">features.csv</text>
<text xml:space="preserve" text-anchor="start" x="428.93" y="-90.69" font-family="Helvetica,sans-Serif" font-size="9.00" fill="white">[CSV&#45;bestand]</text>
<text xml:space="preserve" text-anchor="start" x="392.33" y="-68.79" font-family="Helvetica,sans-Serif" font-size="10.00" fill="white">Vooraf berekende kenmerken</text>
<text xml:space="preserve" text-anchor="start" x="403.45" y="-58.79" font-family="Helvetica,sans-Serif" font-size="10.00" fill="white">per conditie/lager/minuut</text>
</g>
<!-- batch&#45;&gt;featurescsv -->
<g id="edge2" class="edge">
<title>batch&#45;&gt;featurescsv</title>
<path fill="none" stroke="#444444" stroke-width="1.2" d="M410.7,-238.74C410.7,-238.74 410.7,-146.08 410.7,-146.08"/>
<polygon fill="#444444" stroke="#444444" stroke-width="1.2" points="414.2,-146.08 410.7,-136.08 407.2,-146.08 414.2,-146.08"/>
<text xml:space="preserve" text-anchor="middle" x="403.49" y="-183.57" font-family="Helvetica,sans-Serif" font-size="10.00"> &#160;Schrijft [CSV] &#160;</text>
</g>
<!-- webapp&#45;&gt;rawdata -->
<g id="edge5" class="edge">
<title>webapp&#45;&gt;rawdata</title>
<path fill="none" stroke="#444444" stroke-width="1.2" d="M701.2,-238.91C701.2,-184.96 701.2,-97 701.2,-97 701.2,-97 834.35,-97 834.35,-97"/>
<polygon fill="#444444" stroke="#444444" stroke-width="1.2" points="834.35,-100.5 844.35,-97 834.35,-93.5 834.35,-100.5"/>
<text xml:space="preserve" text-anchor="start" x="937.2" y="-189.57" font-family="Helvetica,sans-Serif" font-size="10.00"> &#160;Leest 1 meetmoment</text>
<text xml:space="preserve" text-anchor="start" x="937.2" y="-177.57" font-family="Helvetica,sans-Serif" font-size="10.00"> &#160;voor ruw signaal</text>
</g>
<!-- webapp&#45;&gt;featurescsv -->
<g id="edge3" class="edge">
<title>webapp&#45;&gt;featurescsv</title>
<path fill="none" stroke="#444444" stroke-width="1.2" d="M604.27,-259C556.04,-259 507.9,-259 507.9,-259 507.9,-259 507.9,-145.93 507.9,-145.93"/>
<polygon fill="#444444" stroke="#444444" stroke-width="1.2" points="511.4,-145.93 507.9,-135.93 504.4,-145.93 511.4,-145.93"/>
<text xml:space="preserve" text-anchor="middle" x="616.84" y="-183.57" font-family="Helvetica,sans-Serif" font-size="10.00"> &#160;Leest (gecached) [CSV] &#160;</text>
</g>
</g>
</svg>
