<?xml version="1.0" encoding="UTF-8" standalone="no"?>
<!DOCTYPE svg PUBLIC "-//W3C//DTD SVG 1.1//EN"
 "http://www.w3.org/Graphics/SVG/1.1/DTD/svg11.dtd">
<!-- Generated by graphviz version 15.0.0 (0)
 -->
<!-- Title: C4Component Pages: 1 -->
<svg width="1313pt" height="491pt"
 viewBox="0.00 0.00 1313.00 491.00" xmlns="http://www.w3.org/2000/svg" xmlns:xlink="http://www.w3.org/1999/xlink">
<g id="graph0" class="graph" transform="scale(1 1) rotate(0) translate(4 487)">
<title>C4Component</title>
<polygon fill="white" stroke="none" points="-4,4 -4,-487 1309,-487 1309,4 -4,4"/>
<g id="clust1" class="cluster">
<title>cluster_app</title>
<path fill="white" stroke="#888888" stroke-width="1.5" stroke-dasharray="5,2" d="M461,-8C461,-8 1285,-8 1285,-8 1291,-8 1297,-14 1297,-20 1297,-20 1297,-463 1297,-463 1297,-469 1291,-475 1285,-475 1285,-475 461,-475 461,-475 455,-475 449,-469 449,-463 449,-463 449,-20 449,-20 449,-14 455,-8 461,-8"/>
<text xml:space="preserve" text-anchor="start" x="457" y="-460.3" font-family="Helvetica,sans-Serif" font-weight="bold" font-size="13.00" fill="#333333">Streamlit Web&#45;app</text>
</g>
<!-- monteur -->
<g id="node1" class="node">
<title>monteur</title>
<path fill="#08427b" stroke="black" stroke-width="0" d="M331,-396.6C331,-396.6 175,-396.6 175,-396.6 169,-396.6 163,-390.6 163,-384.6 163,-384.6 163,-351 163,-351 163,-345 169,-339 175,-339 175,-339 331,-339 331,-339 337,-339 343,-345 343,-351 343,-351 343,-384.6 343,-384.6 343,-390.6 337,-396.6 331,-396.6"/>
<text xml:space="preserve" text-anchor="start" x="231.31" y="-368.4" font-family="Helvetica,sans-Serif" font-weight="bold" font-size="11.00" fill="white">Monteur</text>
<text xml:space="preserve" text-anchor="start" x="235.88" y="-360.1" font-family="Helvetica,sans-Serif" font-size="8.00" fill="white">[Persoon]</text>
</g>
<!-- home -->
<g id="node4" class="node">
<title>home</title>
<path fill="#85bbf0" stroke="black" stroke-width="0" d="M641,-403.8C641,-403.8 485,-403.8 485,-403.8 479,-403.8 473,-397.8 473,-391.8 473,-391.8 473,-343.8 473,-343.8 473,-337.8 479,-331.8 485,-331.8 485,-331.8 641,-331.8 641,-331.8 647,-331.8 653,-337.8 653,-343.8 653,-343.8 653,-391.8 653,-391.8 653,-397.8 647,-403.8 641,-403.8"/>
<text xml:space="preserve" text-anchor="start" x="532.74" y="-372.9" font-family="Helvetica,sans-Serif" font-weight="bold" font-size="11.00">Startpagina</text>
<text xml:space="preserve" text-anchor="start" x="548.77" y="-364.6" font-family="Helvetica,sans-Serif" font-size="8.00">[app.py]</text>
<text xml:space="preserve" text-anchor="start" x="528.35" y="-355.7" font-family="Helvetica,sans-Serif" font-size="9.00">Uitleg + navigatie</text>
</g>
<!-- monteur&#45;&gt;home -->
<g id="edge13" class="edge">
<title>monteur&#45;&gt;home</title>
<path fill="none" stroke="#444444" stroke-width="1.1" d="M342.66,-368C342.66,-368 461.34,-368 461.34,-368"/>
<polygon fill="#444444" stroke="#444444" stroke-width="1.1" points="461.34,-371.5 471.34,-368 461.34,-364.5 461.34,-371.5"/>
</g>
<!-- trend -->
<g id="node5" class="node">
<title>trend</title>
<path fill="#85bbf0" stroke="black" stroke-width="0" d="M951,-403.8C951,-403.8 795,-403.8 795,-403.8 789,-403.8 783,-397.8 783,-391.8 783,-391.8 783,-343.8 783,-343.8 783,-337.8 789,-331.8 795,-331.8 795,-331.8 951,-331.8 951,-331.8 957,-331.8 963,-337.8 963,-343.8 963,-343.8 963,-391.8 963,-391.8 963,-397.8 957,-403.8 951,-403.8"/>
<text xml:space="preserve" text-anchor="start" x="832.65" y="-372.9" font-family="Helvetica,sans-Serif" font-weight="bold" font-size="11.00">Trendweergave</text>
<text xml:space="preserve" text-anchor="start" x="821.19" y="-364.6" font-family="Helvetica,sans-Serif" font-size="8.00">[pages/1_Trendweergave.py]</text>
<text xml:space="preserve" text-anchor="start" x="809.84" y="-355.7" font-family="Helvetica,sans-Serif" font-size="9.00">Eén lager: trend + falenmoment</text>
</g>
<!-- monteur&#45;&gt;trend -->
<g id="edge14" class="edge">
<title>monteur&#45;&gt;trend</title>
<path fill="none" stroke="#444444" stroke-width="1.1" d="M310.33,-339.24C310.33,-326.8 310.33,-315 310.33,-315 310.33,-315 820.67,-315 820.67,-315 820.67,-315 820.67,-320.33 820.67,-320.33"/>
<polygon fill="#444444" stroke="#444444" stroke-width="1.1" points="817.17,-320.33 820.67,-330.33 824.17,-320.33 817.17,-320.33"/>
</g>
<!-- vergelijk -->
<g id="node6" class="node">
<title>vergelijk</title>
<path fill="#85bbf0" stroke="black" stroke-width="0" d="M1261,-403.8C1261,-403.8 1105,-403.8 1105,-403.8 1099,-403.8 1093,-397.8 1093,-391.8 1093,-391.8 1093,-343.8 1093,-343.8 1093,-337.8 1099,-331.8 1105,-331.8 1105,-331.8 1261,-331.8 1261,-331.8 1267,-331.8 1273,-337.8 1273,-343.8 1273,-343.8 1273,-391.8 1273,-391.8 1273,-397.8 1267,-403.8 1261,-403.8"/>
<text xml:space="preserve" text-anchor="start" x="1123.69" y="-372.9" font-family="Helvetica,sans-Serif" font-weight="bold" font-size="11.00">Vergelijkingsweergave</text>
<text xml:space="preserve" text-anchor="start" x="1118.96" y="-364.6" font-family="Helvetica,sans-Serif" font-size="8.00">[pages/2_Vergelijkingsweergave.py]</text>
<text xml:space="preserve" text-anchor="start" x="1123.97" y="-355.7" font-family="Helvetica,sans-Serif" font-size="9.00">Meerdere lagers per kenmerk</text>
</g>
<!-- monteur&#45;&gt;vergelijk -->
<g id="edge15" class="edge">
<title>monteur&#45;&gt;vergelijk</title>
<path fill="none" stroke="#444444" stroke-width="1.1" d="M277.67,-339.02C277.67,-320.17 277.67,-299 277.67,-299 277.67,-299 1130.67,-299 1130.67,-299 1130.67,-299 1130.67,-320.53 1130.67,-320.53"/>
<polygon fill="#444444" stroke="#444444" stroke-width="1.1" points="1127.17,-320.53 1130.67,-330.53 1134.17,-320.53 1127.17,-320.53"/>
</g>
<!-- featurescsv -->
<g id="node2" class="node">
<title>featurescsv</title>
<path fill="#438dd5" stroke="black" stroke-width="0" d="M180,-239.51C180,-242.76 139.66,-245.4 90,-245.4 40.34,-245.4 0,-242.76 0,-239.51 0,-239.51 0,-186.49 0,-186.49 0,-183.24 40.34,-180.6 90,-180.6 139.66,-180.6 180,-183.24 180,-186.49 180,-186.49 180,-239.51 180,-239.51"/>
<path fill="none" stroke="black" stroke-width="0" d="M180,-239.51C180,-236.26 139.66,-233.62 90,-233.62 40.34,-233.62 0,-236.26 0,-239.51"/>
<text xml:space="preserve" text-anchor="start" x="57.9" y="-213.6" font-family="Helvetica,sans-Serif" font-weight="bold" font-size="11.00" fill="white">features.csv</text>
<text xml:space="preserve" text-anchor="start" x="79.55" y="-205.3" font-family="Helvetica,sans-Serif" font-size="8.00" fill="white">[CSV]</text>
</g>
<!-- rawdata -->
<g id="node3" class="node">
<title>rawdata</title>
<path fill="#999999" stroke="black" stroke-width="0" d="M413,-241.8C413,-241.8 257,-241.8 257,-241.8 251,-241.8 245,-235.8 245,-229.8 245,-229.8 245,-196.2 245,-196.2 245,-190.2 251,-184.2 257,-184.2 257,-184.2 413,-184.2 413,-184.2 419,-184.2 425,-190.2 425,-196.2 425,-196.2 425,-229.8 425,-229.8 425,-235.8 419,-241.8 413,-241.8"/>
<text xml:space="preserve" text-anchor="start" x="278.46" y="-213.6" font-family="Helvetica,sans-Serif" font-weight="bold" font-size="11.00" fill="white">Ruwe meetbestanden</text>
<text xml:space="preserve" text-anchor="start" x="308.55" y="-205.3" font-family="Helvetica,sans-Serif" font-size="8.00" fill="white">[Extern · CSV]</text>
</g>
<!-- home&#45;&gt;trend -->
<!-- trend&#45;&gt;vergelijk -->
<!-- data -->
<g id="node7" class="node">
<title>data</title>
<path fill="#85bbf0" stroke="black" stroke-width="0" d="M1194,-249C1194,-249 1038,-249 1038,-249 1032,-249 1026,-243 1026,-237 1026,-237 1026,-189 1026,-189 1026,-183 1032,-177 1038,-177 1038,-177 1194,-177 1194,-177 1200,-177 1206,-183 1206,-189 1206,-189 1206,-237 1206,-237 1206,-243 1200,-249 1194,-249"/>
<text xml:space="preserve" text-anchor="start" x="1080.86" y="-218.1" font-family="Helvetica,sans-Serif" font-weight="bold" font-size="11.00">Data&#45;toegang</text>
<text xml:space="preserve" text-anchor="start" x="1094.21" y="-209.8" font-family="Helvetica,sans-Serif" font-size="8.00">[src/data.py]</text>
<text xml:space="preserve" text-anchor="start" x="1061.12" y="-200.9" font-family="Helvetica,sans-Serif" font-size="9.00">Leest CSV&#39;s, cached, filters</text>
</g>
<!-- trend&#45;&gt;data -->
<g id="edge5" class="edge">
<title>trend&#45;&gt;data</title>
<path fill="none" stroke="#444444" stroke-width="1.1" d="M948,-332.02C948,-288.28 948,-220 948,-220 948,-220 1014.43,-220 1014.43,-220"/>
<polygon fill="#444444" stroke="#444444" stroke-width="1.1" points="1014.43,-223.5 1024.43,-220 1014.43,-216.5 1014.43,-223.5"/>
</g>
<!-- charts -->
<g id="node8" class="node">
<title>charts</title>
<path fill="#85bbf0" stroke="black" stroke-width="0" d="M884,-249C884,-249 728,-249 728,-249 722,-249 716,-243 716,-237 716,-237 716,-189 716,-189 716,-183 722,-177 728,-177 728,-177 884,-177 884,-177 890,-177 896,-183 896,-189 896,-189 896,-237 896,-237 896,-243 890,-249 884,-249"/>
<text xml:space="preserve" text-anchor="start" x="780.63" y="-218.1" font-family="Helvetica,sans-Serif" font-weight="bold" font-size="11.00">Grafieken</text>
<text xml:space="preserve" text-anchor="start" x="781.11" y="-209.8" font-family="Helvetica,sans-Serif" font-size="8.00">[src/charts.py]</text>
<text xml:space="preserve" text-anchor="start" x="757.23" y="-200.9" font-family="Helvetica,sans-Serif" font-size="9.00">Plotly: trend, vergelijking</text>
</g>
<!-- trend&#45;&gt;charts -->
<g id="edge6" class="edge">
<title>trend&#45;&gt;charts</title>
<path fill="none" stroke="#444444" stroke-width="1.1" d="M858.33,-331.9C858.33,-331.9 858.33,-260.64 858.33,-260.64"/>
<polygon fill="#444444" stroke="#444444" stroke-width="1.1" points="861.83,-260.64 858.33,-250.64 854.83,-260.64 861.83,-260.64"/>
</g>
<!-- config -->
<g id="node9" class="node">
<title>config</title>
<path fill="#85bbf0" stroke="black" stroke-width="0" d="M921,-104C921,-104 765,-104 765,-104 759,-104 753,-98 753,-92 753,-92 753,-44 753,-44 753,-38 759,-32 765,-32 765,-32 921,-32 921,-32 927,-32 933,-38 933,-44 933,-44 933,-92 933,-92 933,-98 927,-104 921,-104"/>
<text xml:space="preserve" text-anchor="start" x="810.61" y="-73.1" font-family="Helvetica,sans-Serif" font-weight="bold" font-size="11.00">Configuratie</text>
<text xml:space="preserve" text-anchor="start" x="818.32" y="-64.8" font-family="Helvetica,sans-Serif" font-size="8.00">[src/config.py]</text>
<text xml:space="preserve" text-anchor="start" x="766.45" y="-55.9" font-family="Helvetica,sans-Serif" font-size="9.00">Paden, condities — bron van waarheid</text>
</g>
<!-- trend&#45;&gt;config -->
<g id="edge7" class="edge">
<title>trend&#45;&gt;config</title>
<path fill="none" stroke="#444444" stroke-width="1.1" d="M908.33,-331.93C908.33,-331.93 908.33,-115.57 908.33,-115.57"/>
<polygon fill="#444444" stroke="#444444" stroke-width="1.1" points="911.83,-115.57 908.33,-105.57 904.83,-115.57 911.83,-115.57"/>
</g>
<!-- vergelijk&#45;&gt;data -->
<g id="edge8" class="edge">
<title>vergelijk&#45;&gt;data</title>
<path fill="none" stroke="#444444" stroke-width="1.1" d="M1168.33,-331.9C1168.33,-331.9 1168.33,-260.64 1168.33,-260.64"/>
<polygon fill="#444444" stroke="#444444" stroke-width="1.1" points="1171.83,-260.64 1168.33,-250.64 1164.83,-260.64 1171.83,-260.64"/>
</g>
<!-- vergelijk&#45;&gt;charts -->
<g id="edge9" class="edge">
<title>vergelijk&#45;&gt;charts</title>
<path fill="none" stroke="#444444" stroke-width="1.1" d="M1093.11,-368C1040.37,-368 984,-368 984,-368 984,-368 984,-235 984,-235 984,-235 907.45,-235 907.45,-235"/>
<polygon fill="#444444" stroke="#444444" stroke-width="1.1" points="907.45,-231.5 897.45,-235 907.45,-238.5 907.45,-231.5"/>
</g>
<!-- vergelijk&#45;&gt;config -->
<g id="edge10" class="edge">
<title>vergelijk&#45;&gt;config</title>
<path fill="none" stroke="#444444" stroke-width="1.1" d="M1093.22,-350C1048.98,-350 1005,-350 1005,-350 1005,-350 1005,-80 1005,-80 1005,-80 944.19,-80 944.19,-80"/>
<polygon fill="#444444" stroke="#444444" stroke-width="1.1" points="944.19,-76.5 934.19,-80 944.19,-83.5 944.19,-76.5"/>
</g>
<!-- data&#45;&gt;featurescsv -->
<g id="edge16" class="edge">
<title>data&#45;&gt;featurescsv</title>
<path fill="none" stroke="#444444" stroke-width="1.1" d="M1070.67,-248.71C1070.67,-265.55 1070.67,-282 1070.67,-282 1070.67,-282 171.5,-282 171.5,-282 171.5,-282 171.5,-254.73 171.5,-254.73"/>
<polygon fill="#444444" stroke="#444444" stroke-width="1.1" points="175,-254.73 171.5,-244.73 168,-254.73 175,-254.73"/>
<text xml:space="preserve" text-anchor="middle" x="396" y="-287.7" font-family="Helvetica,sans-Serif" font-size="9.00"> &#160;leest &#160;</text>
</g>
<!-- data&#45;&gt;rawdata -->
<g id="edge17" class="edge">
<title>data&#45;&gt;rawdata</title>
<path fill="none" stroke="#444444" stroke-width="1.1" d="M1048.33,-248.94C1048.33,-258.39 1048.33,-266 1048.33,-266 1048.33,-266 384,-266 384,-266 384,-266 384,-253.34 384,-253.34"/>
<polygon fill="#444444" stroke="#444444" stroke-width="1.1" points="387.5,-253.34 384,-243.34 380.5,-253.34 387.5,-253.34"/>
<text xml:space="preserve" text-anchor="middle" x="567" y="-287.7" font-family="Helvetica,sans-Serif" font-size="9.00"> &#160;leest 1 meetmoment &#160;</text>
</g>
<!-- data&#45;&gt;config -->
<g id="edge11" class="edge">
<title>data&#45;&gt;config</title>
<path fill="none" stroke="#444444" stroke-width="1.1" d="M1026.05,-191C974.79,-191 920.67,-191 920.67,-191 920.67,-191 920.67,-115.57 920.67,-115.57"/>
<polygon fill="#444444" stroke="#444444" stroke-width="1.1" points="924.17,-115.57 920.67,-105.57 917.17,-115.57 924.17,-115.57"/>
</g>
<!-- charts&#45;&gt;data -->
<!-- charts&#45;&gt;config -->
<g id="edge12" class="edge">
<title>charts&#45;&gt;config</title>
<path fill="none" stroke="#444444" stroke-width="1.1" d="M824.5,-177.16C824.5,-177.16 824.5,-115.6 824.5,-115.6"/>
<polygon fill="#444444" stroke="#444444" stroke-width="1.1" points="828,-115.6 824.5,-105.6 821,-115.6 828,-115.6"/>
</g>
<!-- features -->
<g id="node10" class="node">
<title>features</title>
<path fill="#85bbf0" stroke="black" stroke-width="0" d="M1231,-104C1231,-104 1075,-104 1075,-104 1069,-104 1063,-98 1063,-92 1063,-92 1063,-44 1063,-44 1063,-38 1069,-32 1075,-32 1075,-32 1231,-32 1231,-32 1237,-32 1243,-38 1243,-44 1243,-44 1243,-92 1243,-92 1243,-98 1237,-104 1231,-104"/>
<text xml:space="preserve" text-anchor="start" x="1091.87" y="-73.1" font-family="Helvetica,sans-Serif" font-weight="bold" font-size="11.00">Kenmerk&#45;berekeningen</text>
<text xml:space="preserve" text-anchor="start" x="1124.54" y="-64.8" font-family="Helvetica,sans-Serif" font-size="8.00">[src/features.py]</text>
<text xml:space="preserve" text-anchor="start" x="1100.24" y="-55.9" font-family="Helvetica,sans-Serif" font-size="9.00">RMS, kurtosis, crest factor</text>
</g>
<!-- config&#45;&gt;features -->
</g>
</svg>
